<?xml version="1.0" encoding="UTF-8" standalone="no"?>
<svg
   xmlns:dc="http://purl.org/dc/elements/1.1/"
   xmlns:cc="http://creativecommons.org/ns#"
   xmlns:rdf="http://www.w3.org/1999/02/22-rdf-syntax-ns#"
   xmlns:svg="http://www.w3.org/2000/svg"
   xmlns="http://www.w3.org/2000/svg"
   xmlns:sodipodi="http://sodipodi.sourceforge.net/DTD/sodipodi-0.dtd"
   xmlns:inkscape="http://www.inkscape.org/namespaces/inkscape"
   width="23.855322mm"
   height="103.52431mm"
   viewBox="0 0 23.855322 103.52431"
   version="1.1"
   id="svg8"
   inkscape:version="1.0.2-2 (e86c870879, 2021-01-15)"
   sodipodi:docname="MovementsLogos.svg">
  <defs
     id="defs2">
    <rect
       x="-20.838375"
       y="28.920734"
       width="20.175731"
       height="13.12615"
       id="rect1718" />
    <pattern
       id="EMFhbasepattern"
       patternUnits="userSpaceOnUse"
       width="6"
       height="6"
       x="0"
       y="0" />
  </defs>
  <sodipodi:namedview
     id="base"
     pagecolor="#ffffff"
     bordercolor="#666666"
     borderopacity="1.0"
     inkscape:pageopacity="0.0"
     inkscape:pageshadow="2"
     inkscape:zoom="1"
     inkscape:cx="337.25105"
     inkscape:cy="250.87683"
     inkscape:document-units="mm"
     inkscape:current-layer="layer1"
     inkscape:document-rotation="0"
     showgrid="false"
     inkscape:snap-global="false"
     inkscape:window-width="1920"
     inkscape:window-height="1017"
     inkscape:window-x="1272"
     inkscape:window-y="-8"
     inkscape:window-maximized="1" />
  <metadata
     id="metadata5">
    <rdf:RDF>
      <cc:Work
         rdf:about="">
        <dc:format>image/svg+xml</dc:format>
        <dc:type
           rdf:resource="http://purl.org/dc/dcmitype/StillImage" />
        <dc:title></dc:title>
      </cc:Work>
    </rdf:RDF>
  </metadata>
  <g
     inkscape:label="Layer 1"
     inkscape:groupmode="layer"
     id="layer1"
     transform="translate(37.245478,-12.767443)">
    <g
       id="g932"
       transform="translate(20.748102,30.283161)">
      <path
         id="rect914"
         style="fill:#929292;fill-opacity:1;stroke:#000000;stroke-width:1.9765;stroke-miterlimit:4;stroke-dasharray:none;stroke-opacity:1"
         d="m -191.84766,-38.65625 v 7.583984 l 7.29102,4.552735 c 1.3515,0.843812 3.11908,0.433527 3.96289,-0.917969 l 0.35937,-0.576172 c 0.84382,-1.351496 0.43549,-3.119079 -0.91601,-3.96289 z m -12.83789,12.001953 c 0,0 -0.11257,10.785283 -0.32226,11.658203 -0.20969,0.87292 -7.33789,15.66601588 -7.33789,15.66601588 -0.90987,1.94725522 -0.60766,4.38564662 1.53906,5.42578122 2.23161,1.0812593 4.83526,-0.066353 5.76562,-2.0039062 l 6.91211,-14.3945309 c 0.43798,-0.912143 1.02344,-2.076337 1.02344,-3.167969 v -2.931641 c -2.00977,-2.228458 -4.222,-4.346424 -5.89258,-6.58789 -0.70905,-0.951352 -1.46611,-2.477862 -1.6875,-3.664063 z"
         transform="scale(0.26458333)" />
      <path
         id="rect893"
         style="fill:#ffffff;fill-opacity:1;stroke:#000000;stroke-width:1.78476;stroke-miterlimit:4;stroke-dasharray:none;stroke-opacity:1"
         d="m -204.04492,-52.394531 c -0.78555,0.02165 -1.56115,0.344374 -2.14649,0.96289 l -8.34961,8.822266 c -0.70116,0.740855 -1.49013,1.447916 -1.52734,2.546875 l -0.44141,13.058594 c -0.0576,1.702179 1.26658,3.11815 2.96875,3.175781 l 0.2168,0.0078 c 1.70218,0.05763 3.11815,-1.266572 3.17578,-2.96875 0,0 0.21275,-11.10808 0.39258,-11.617188 0.10806,-0.305915 2.6495,-2.954471 4.97461,-5.349609 v 17.044921 c 0,1.51059 0.94931,2.601851 1.7832,3.720704 3.25906,4.372786 8.59825,8.265041 10.41993,13.4550778 0.7496,2.4838438 3.81249,12.6328124 3.8125,12.6328124 0.77999,2.5841641 3.25008,4.1069408 5.53906,3.4160157 2.28897,-0.6909252 3.50464,-3.3279454 2.72461,-5.9121094 0,0 -2.53576,-11.7620275 -5.16407,-17.1074215 -1.06343,-2.162777 -3.38372,-4.52544 -4.20507,-5.88086 -0.70432,-1.162295 -1.94832,-3.001567 -1.97667,-4.324216 v -20.238281 c 0,-4.096153 -1.64773,-5.308478 -5.30572,-5.347594 -2.29119,-0.0245 -4.61098,-0.106405 -6.89142,-0.09772 z"
         sodipodi:nodetypes="ccscccccscssccscsscsscc"
         transform="scale(0.26458333)" />
      <circle
         style="fill:#ffffff;fill-opacity:1;stroke:#000000;stroke-width:0.443024;stroke-miterlimit:4;stroke-dasharray:none;stroke-opacity:1"
         id="path889"
         cx="-52.591248"
         cy="-15.56664"
         r="1.7275661" />
    </g>
    <g
       id="g1001"
       transform="translate(22.094153,23.403958)">
      <path
         id="path934"
         style="fill:#929292;fill-opacity:1;stroke:#000000;stroke-width:1.9765;stroke-miterlimit:4;stroke-dasharray:none;stroke-opacity:1"
         d="m -141.19531,49.402344 c -1.34586,-0.0121 -2.55204,0.919324 -2.84375,2.289062 l -1.13282,5.322266 -1.40429,4.53125 -3.35352,-3.748047 -2.11523,7.283203 5.73242,6.40625 c 1.0626,1.18721 3.41725,1.680305 4.06055,0.222656 2.24529,-5.087632 2.818,-11.245843 3.73242,-15.78125 L -137.89648,53 c 0.33339,-1.565415 -0.6592,-3.094345 -2.22461,-3.427734 l -0.49024,-0.105469 c -0.19567,-0.04167 -0.39172,-0.06273 -0.58398,-0.06445 z m -21.09375,30.291015 c -0.0614,6.776238 -0.0617,6.745643 -0.0371,19.082032 -0.0198,3.583509 -0.004,7.703839 0,10.837889 0,2.11083 1.46143,3.60352 3.57226,3.60352 2.11083,0 3.97954,-1.43412 3.98829,-3.54492 l 0.0293,-7.13672 c 0.0532,-4.837412 0.026,-4.815776 0.0274,-9.658207 v -2.931641 c -2.00977,-2.228456 -4.222,-4.346422 -5.89258,-6.58789 -0.70905,-0.951353 -1.46611,-2.477862 -1.6875,-3.664063 z"
         transform="scale(0.26458333)" />
      <circle
         style="fill:#ffffff;fill-opacity:1;stroke:#000000;stroke-width:0.443024;stroke-miterlimit:4;stroke-dasharray:none;stroke-opacity:1"
         id="circle938"
         cx="-41.373814"
         cy="12.570948"
         r="1.7275661" />
      <path
         id="path936"
         style="fill:#ffffff;fill-opacity:1;stroke:#000000;stroke-width:1.78476;stroke-miterlimit:4;stroke-dasharray:none;stroke-opacity:1"
         d="m -161.64844,53.953125 c -0.78555,0.02154 -1.56114,0.344356 -2.14648,0.962891 l -8.34961,8.822265 c -0.70116,0.740856 -1.49014,1.447917 -1.52735,2.546875 l -0.4414,13.058594 c -0.0576,1.702178 1.26658,3.118151 2.96875,3.175781 l 0.2168,0.0078 c 1.70217,0.05764 3.11815,-1.266572 3.17578,-2.96875 0,0 0.21278,-11.108078 0.39257,-11.617188 0.10806,-0.305915 2.64951,-2.954473 4.97461,-5.349609 v 17.044922 c -0.0405,3.715878 -0.0296,3.695995 0.0371,5.742187 0.11617,2.457562 2.188,4.321085 4.64649,4.226563 5.76824,-0.221773 14.01134,-1.092787 14.449,-0.585313 0.39349,0.456259 0.21744,6.354244 0.22092,8.975938 0,2.110829 1.46339,3.603519 3.57422,3.603519 2.11083,0 4.39794,-1.936793 4.40669,-4.047605 l 0.0293,-7.136719 c -0.0179,-1.460109 0.0373,-5.361385 -4.4e-4,-6.327398 -0.11617,-2.457562 -2.19117,-4.041877 -4.64454,-4.226563 -2.53822,-0.191074 -8.92963,1.650804 -9.78515,-0.224609 -0.36424,-0.798466 0,-20.238281 0,-20.238281 0,-4.096154 -1.64865,-5.308539 -5.30664,-5.347657 -2.29119,-0.02457 -4.61019,-0.106345 -6.89063,-0.09766 z"
         transform="scale(0.26458333)"
         sodipodi:nodetypes="ccccccccscccsscscccssccc" />
      <path
         style="fill:#000000;stroke:#000000;stroke-width:0.128006px;stroke-linecap:butt;stroke-linejoin:miter;stroke-opacity:1"
         d="m -38.778748,28.0446 c -0.0182,-0.0083 -0.267408,-0.117397 -0.267408,-0.117397 l 0.814784,-0.437615 0.208437,0.91258 -0.318356,-0.140644 c 0,0 -0.150684,0.436864 -0.677229,0.627761 -0.526548,0.190894 -0.916416,0.05284 -0.916416,0.05284 0,0 0.784314,-0.04269 1.156174,-0.89749 z"
         id="path994"
         sodipodi:nodetypes="sccccscss" />
    </g>
    <g
       id="g1158"
       transform="translate(-11.486928,2.4610581)">
      <path
         id="rect1038"
         style="fill:#929292;fill-opacity:1;stroke:#000000;stroke-width:0.499999;stroke-miterlimit:4;stroke-dasharray:none;stroke-opacity:1"
         d="m -21.338047,41.465144 c 6.88e-4,0.444892 1.19e-4,0.609209 0.0016,1.297596 -0.0029,0.521481 -7.15e-4,1.036797 0,1.577163 -0.1616,-0.05808 -0.379347,-0.119705 -0.52555,-0.161229 l -2.110465,-0.648539 c -0.166506,-0.05116 -0.333057,-0.07276 -0.49196,-0.06822 -0.47671,0.0136 -0.883364,0.263229 -1.006657,0.66456 -0.164394,0.535106 0.239344,1.130707 0.905372,1.33532 l 3.364135,1.033528 c 0.220041,0.07839 0.382356,0.11456 0.558106,0.170532 0.51813,0.164958 0.997341,-0.06857 1.178739,-0.572058 0.07848,-0.130368 0.127976,-0.279601 0.128674,-0.448035 l 0.0078,-1.888257 c 1.93e-4,-0.0176 -1.88e-4,-0.01802 0,-0.03514 -0.03551,-0.03264 -0.07206,-0.06306 -0.104904,-0.100253 z"
         sodipodi:nodetypes="ccccccscccccccsc" />
      <path
         id="path1019"
         style="fill:#929292;fill-opacity:1;stroke:#000000;stroke-width:0.522949;stroke-miterlimit:4;stroke-dasharray:none;stroke-opacity:1"
         d="m -15.754926,34.013919 c -0.356092,-0.0032 -0.675228,0.243237 -0.752409,0.605648 l -0.299723,1.408183 -0.371553,1.198894 -0.887285,-0.991672 -0.559656,1.927013 1.516704,1.694987 c 0.281146,0.314116 0.904147,0.444582 1.074353,0.05891 0.594067,-1.346103 0.745596,-2.975462 0.987536,-4.175456 l 0.164848,-0.774631 c 0.08821,-0.414182 -0.174412,-0.818711 -0.588594,-0.906921 l -0.129708,-0.02791 c -0.05177,-0.01103 -0.103645,-0.01659 -0.154513,-0.01704 z" />
      <circle
         style="fill:#ffffff;fill-opacity:1;stroke:#000000;stroke-width:0.443024;stroke-miterlimit:4;stroke-dasharray:none;stroke-opacity:1"
         id="circle1005"
         cx="-19.770912"
         cy="33.513847"
         r="1.7275661" />
      <path
         id="path1007"
         style="fill:#ffffff;fill-opacity:1;stroke:#000000;stroke-width:0.472218;stroke-miterlimit:4;stroke-dasharray:none;stroke-opacity:1"
         d="m -21.166482,35.21798 c -0.207843,0.0057 -0.413053,0.09111 -0.567924,0.254765 l -2.209167,2.334225 c -0.185515,0.196017 -0.394265,0.383093 -0.40411,0.67386 l -0.116789,3.455087 c -0.01524,0.450366 0.335117,0.825011 0.785482,0.840259 l 0.05736,0.0021 c 0.450366,0.01524 0.825012,-0.335114 0.840259,-0.785482 0,0 0.0563,-2.939013 0.10387,-3.073715 0.02859,-0.08094 0.701015,-0.781704 1.316198,-1.415418 v 4.497917 c -0.0097,0.887579 0.786869,1.25363 1.366325,1.309481 -0.01689,2.164376 -0.03036,4.440055 -0.04444,6.563453 0,0.558485 0.436282,0.953402 0.994771,0.953402 0.558492,0 1.095646,-0.326851 1.097962,-0.885333 0.0012,-0.213365 0.0055,-0.466632 0.0031,-0.681077 v -7.110677 c 0.0049,-0.02871 6.09e-4,-0.107273 0.0043,-0.137364 0.003,-0.240549 0,-5.354711 0,-5.354711 0,-1.083773 -0.436206,-1.404552 -1.404049,-1.4149 -0.606211,-0.0065 -1.219778,-0.02814 -1.823144,-0.02585 z"
         sodipodi:nodetypes="ccscccccsccccsccccccc" />
      <path
         style="fill:#000000;stroke:#000000;stroke-width:0.129323px;stroke-linecap:butt;stroke-linejoin:miter;stroke-opacity:1"
         d="m -22.593868,48.19847 c 0.01938,-0.0058 0.283984,-0.08004 0.283984,-0.08004 l -0.754001,-0.551868 -0.336249,0.883919 0.338213,-0.09618 c 0,0 0.08964,0.458191 0.589763,0.722873 0.500128,0.264679 0.909531,0.181098 0.909531,0.181098 0,0 -0.778775,-0.152462 -1.031231,-1.05977 z"
         id="path1009"
         sodipodi:nodetypes="sccccscss" />
    </g>
    <path
       id="path1009-1"
       style="fill:#000000;stroke:#000000;stroke-width:0.129323px;stroke-linecap:butt;stroke-linejoin:miter;stroke-opacity:1"
       d="m -18.45618,75.232721 0.728462,0.603569 0.018,-0.350906 c 0,0 0.356411,0.04759 0.722181,-0.20327 0.421247,-0.136725 0.600906,-0.448219 0.600906,-0.448219 l 0.288746,0.200452 -0.03331,-0.945433 -0.891656,0.279288 c 0,0 0.226732,0.155735 0.243206,0.167475 -0.118347,0.173083 -0.249309,0.30052 -0.381421,0.396881 -0.156574,0.04548 -0.336851,0.07121 -0.545394,0.05932 7.59e-4,-0.02021 0.01583,-0.294866 0.01583,-0.294866 z" />
    <g
       id="g1142"
       transform="translate(0,-2.8339278)">
      <g
         id="g1060"
         transform="translate(2.6293047,17.584833)">
        <circle
           style="fill:#ffffff;fill-opacity:1;stroke:#000000;stroke-width:0.443024;stroke-miterlimit:4;stroke-dasharray:none;stroke-opacity:1"
           id="circle1054"
           cx="-21.73015"
           cy="42.588772"
           r="1.7275661" />
        <path
           id="path1062"
           style="fill:#929292;fill-opacity:1;stroke:#000000;stroke-width:0.472218;stroke-miterlimit:4;stroke-dasharray:none;stroke-opacity:1"
           d="m -20.417503,44.292903 c 0.207843,0.0057 0.413053,0.09111 0.567924,0.254765 l 2.209168,2.334225 c 0.185515,0.196017 0.394264,0.383093 0.404109,0.67386 l 0.116789,3.455088 c 0.01524,0.450365 -0.335116,0.82501 -0.785481,0.840258 l -0.05736,0.0021 c -0.450366,0.01524 -0.825012,-0.335114 -0.840259,-0.785482 0,0 -0.0563,-2.939013 -0.10387,-3.073715 -0.02859,-0.08094 -0.701016,-0.781703 -1.316199,-1.415418 v 4.497917 c 0.0097,0.887579 -0.786869,1.25363 -1.366325,1.309481 0.01689,2.164376 0.03036,4.440055 0.04444,6.563453 0,0.558485 -0.436281,0.953402 -0.994771,0.953402 -0.558491,0 -1.095646,-0.32685 -1.097962,-0.885333 -0.0012,-0.213365 -0.0055,-0.466632 -0.0031,-0.681077 V 51.22575 c -0.0049,-0.02871 -6.08e-4,-0.107273 -0.0043,-0.137364 -0.003,-0.240548 0,-5.354711 0,-5.354711 0,-1.083773 0.436205,-1.404552 1.404048,-1.414899 0.606211,-0.0065 1.219779,-0.02814 1.823145,-0.02585 z"
           sodipodi:nodetypes="ccscccccsccccsccccccc" />
        <path
           id="path1077"
           style="fill:#ffffff;fill-opacity:1;stroke:#000000;stroke-width:1.78476;stroke-miterlimit:4;stroke-dasharray:none;stroke-opacity:1"
           d="m -77.466797,233.86914 c -0.785548,0.0215 -1.561145,0.34435 -2.146484,0.96289 l -8.34961,8.82227 c -0.701159,0.74085 -1.490134,1.44791 -1.527343,2.54687 l -0.441407,13.0586 c -0.0576,1.70217 1.266583,3.11815 2.96875,3.17578 l 0.216797,0.008 c 1.702171,0.0576 3.118155,-1.26657 3.175782,-2.96875 0,0 0.212793,-11.10808 0.392578,-11.61719 0.108056,-0.30591 2.649508,-2.95447 4.974609,-5.34961 v 17 c -0.03561,3.26608 4.095447,4.08885 4.984375,4.91992 1.299878,1.21528 4.63574,8.03748 6.617188,11.4043 2.102286,3.68216 4.222245,7.39905 6.242187,10.9375 1.058593,1.82617 3.232409,2.29103 5.058594,1.23242 0.0706,-0.0409 0.132762,-0.0928 0.201172,-0.13672 0.104806,-0.0492 0.210856,-0.0994 0.314453,-0.16211 1.341259,-0.90761 3.098075,-2.53713 2.490038,-3.59193 -1.638431,-2.84228 -11.36249,-18.90003 -12.679034,-21.82242 -0.371096,-0.82373 -0.312404,-1.83981 -0.295379,-2.73604 0.01134,-0.90916 0,-20.23828 0,-20.23828 0,-4.09615 -1.648652,-5.30854 -5.306641,-5.34765 -2.291191,-0.0246 -4.610186,-0.10631 -6.890625,-0.0977 z"
           transform="matrix(0.26458333,0,0,0.26458333,-2.6293047,-17.584833)"
           sodipodi:nodetypes="ccscccccsccsccsccssccccc" />
      </g>
    </g>
    <g
       id="g1116"
       transform="translate(-9.5784163,14.750905)">
      <g
         id="g1165">
        <path
           id="path1108"
           style="fill:#000000;stroke:#000000;stroke-width:0.129323px;stroke-linecap:butt;stroke-linejoin:miter;stroke-opacity:1"
           d="m -34.299616,76.161373 -0.06519,0.94377 0.295495,-0.19011 c 0,0 0.16929,0.317229 0.58643,0.467935 0.356812,0.262352 0.714614,0.226529 0.714614,0.226529 l 0.0057,0.351459 0.748412,-0.578648 -0.747047,-0.561225 c 0,0 0.0058,0.275004 0.0059,0.295233 -0.209619,0.0049 -0.389526,-0.02715 -0.544865,-0.07822 -0.128287,-0.100629 -0.254363,-0.232031 -0.366377,-0.408339 0.01686,-0.01117 0.248715,-0.159178 0.248715,-0.159178 z"
           transform="translate(9.5784163,-17.264414)" />
        <path
           id="path1114"
           style="fill:#929292;fill-opacity:1;stroke:#000000;stroke-width:0.472218;stroke-miterlimit:4;stroke-dasharray:none;stroke-opacity:1"
           d="m -20.393363,44.39264 c 0.207843,0.0057 0.413053,0.09111 0.567924,0.254764 l 2.209168,2.334226 c 0.185515,0.196017 0.394265,0.383093 0.404109,0.673859 l 0.116789,3.455088 c 0.01524,0.450366 -0.335116,0.825011 -0.785481,0.840259 l -0.05736,0.0021 c -0.450366,0.01524 -0.825012,-0.335113 -0.840259,-0.785481 0,0 -0.0563,-2.939013 -0.10387,-3.073715 -0.02859,-0.08094 -0.701015,-0.781704 -1.316198,-1.415418 v 4.497917 c 0.0094,0.86415 -1.083587,1.081841 -1.318783,1.301729 -0.343926,0.321542 -1.22654,2.126583 -1.750798,3.017387 -0.556229,0.974238 -1.117135,1.957666 -1.651578,2.89388 -0.280086,0.483175 -0.855242,0.606169 -1.33842,0.326078 -0.01868,-0.01082 -0.03513,-0.02455 -0.05323,-0.03617 -0.02773,-0.01302 -0.05579,-0.0263 -0.0832,-0.04289 -0.354874,-0.240139 -0.819699,-0.671282 -0.658822,-0.950365 0.433501,-0.75202 3.006325,-5.000633 3.354661,-5.773849 0.09819,-0.217945 0.08266,-0.486783 0.07815,-0.72391 -0.003,-0.240549 0,-5.354712 0,-5.354712 0,-1.083773 0.436206,-1.404551 1.404049,-1.414899 0.606211,-0.0065 1.219778,-0.02813 1.823144,-0.02585 z"
           sodipodi:nodetypes="ccscccccsccsccsccssccccc" />
        <circle
           style="fill:#ffffff;fill-opacity:1;stroke:#000000;stroke-width:0.443024;stroke-miterlimit:4;stroke-dasharray:none;stroke-opacity:1"
           id="circle1110"
           cx="-21.73015"
           cy="42.588772"
           r="1.7275661" />
        <path
           id="path1112"
           style="fill:#ffffff;fill-opacity:1;stroke:#000000;stroke-width:0.472218;stroke-miterlimit:4;stroke-dasharray:none;stroke-opacity:1"
           d="m -23.060354,44.411386 c -0.207843,0.0057 -0.413053,0.09111 -0.567924,0.254765 l -2.209168,2.334225 c -0.185515,0.196017 -0.394264,0.383093 -0.404109,0.67386 l -0.116789,3.455088 c -0.01524,0.450365 0.335116,0.82501 0.785481,0.840258 l 0.05736,0.0021 c 0.450366,0.01524 0.825012,-0.335114 0.840259,-0.785482 0,0 0.0563,-2.939013 0.10387,-3.073715 0.02859,-0.08094 0.701016,-0.781703 1.316199,-1.415418 v 4.497917 c -0.0097,0.887579 0.786869,1.25363 1.366325,1.309481 -0.01689,2.164376 -0.03036,4.440055 -0.04444,6.563453 0,0.558485 0.436281,0.953402 0.994771,0.953402 0.558491,0 1.095646,-0.32685 1.097962,-0.885333 0.0012,-0.213365 0.0055,-0.466632 0.0031,-0.681077 v -7.110677 c 0.0049,-0.02871 6.08e-4,-0.107273 0.0043,-0.137364 0.003,-0.240548 0,-5.354711 0,-5.354711 0,-1.083773 -0.436205,-1.404552 -1.404048,-1.414899 -0.606211,-0.0065 -1.219779,-0.02814 -1.823145,-0.02585 z"
           sodipodi:nodetypes="ccscccccsccccsccccccc" />
      </g>
    </g>
    <text
       xml:space="preserve"
       style="font-style:normal;font-variant:normal;font-weight:400;font-size:3.86953px;line-height:1679.39%;font-family:Calibri;text-align:start;letter-spacing:0px;word-spacing:0px;text-anchor:start;fill:#000000;fill-opacity:1;stroke:none;stroke-width:0.264583"
       x="-112.09539"
       y="10.719368"
       id="text1187"><tspan
         sodipodi:role="line"
         x="-112.09539"
         y="10.719368"
         id="tspan1181"
         style="stroke-width:0.264583"><tspan
           dx="0"
           dy="0"
           style="font-style:normal;font-variant:normal;font-weight:400;font-size:3.86953px;font-family:Calibri;fill:#000000;stroke-width:0.264583"
           id="tspan1179">Ouverture bras tendus sur le coté</tspan></tspan><tspan
         sodipodi:role="line"
         x="-112.09539"
         y="75.703865"
         id="tspan1185"
         style="stroke-width:0.264583"><tspan
           dx="0"
           dy="0"
           style="font-style:normal;font-variant:normal;font-weight:400;font-size:3.86953px;font-family:Calibri;fill:#000000;stroke-width:0.264583"
           id="tspan1183">Tirage bras pliés vers l'arrière </tspan></tspan></text>
    <text
       xml:space="preserve"
       style="font-style:normal;font-variant:normal;font-weight:400;font-size:3.86953px;line-height:129.065%;font-family:Calibri;text-align:start;letter-spacing:0px;word-spacing:0px;text-anchor:start;fill:#000000;fill-opacity:1;stroke:none;stroke-width:0.264583"
       x="-112.09539"
       y="122.79524"
       id="text1201"><tspan
         sodipodi:role="line"
         x="-112.09539"
         y="122.79524"
         id="tspan1191"
         style="stroke-width:0.264583"><tspan
           dx="0"
           dy="0"
           style="font-style:normal;font-variant:normal;font-weight:400;font-size:3.86953px;font-family:Calibri;fill:#000000;stroke-width:0.264583"
           id="tspan1189">Boxe coup droit </tspan></tspan><tspan
         sodipodi:role="line"
         x="-112.09539"
         y="127.78945"
         id="tspan1195"
         style="stroke-width:0.264583"><tspan
           dx="0"
           dy="0"
           style="font-style:normal;font-variant:normal;font-weight:400;font-size:3.86953px;font-family:Calibri;fill:#000000;stroke-width:0.264583"
           id="tspan1193">Boxe Uppercut</tspan></tspan><tspan
         sodipodi:role="line"
         x="-112.09539"
         y="132.78366"
         id="tspan1199"
         style="stroke-width:0.264583"><tspan
           dx="0"
           dy="0"
           style="font-style:normal;font-variant:normal;font-weight:400;font-size:3.86953px;font-family:Calibri;fill:#000000;stroke-width:0.264583"
           id="tspan1197">Boxe crochet</tspan></tspan></text>
    <text
       xml:space="preserve"
       style="font-style:normal;font-variant:normal;font-weight:400;font-size:3.86953px;line-height:125%;font-family:Calibri;text-align:start;letter-spacing:0px;word-spacing:0px;text-anchor:start;fill:#000000;fill-opacity:1;stroke:none;stroke-width:0.264583"
       x="-112.09539"
       y="18.335304"
       id="text1225"><tspan
         sodipodi:role="line"
         x="-112.09539"
         y="18.335304"
         id="tspan1223"
         style="stroke-width:0.264583"><tspan
           dx="0"
           dy="0"
           style="font-style:normal;font-variant:normal;font-weight:400;font-size:3.86953px;font-family:Calibri;fill:#000000;stroke-width:0.264583"
           id="tspan1221">Flexion et extension bras vers le </tspan></tspan></text>
    <text
       xml:space="preserve"
       style="font-style:normal;font-variant:normal;font-weight:400;font-size:3.86953px;line-height:125%;font-family:Calibri;text-align:start;letter-spacing:0px;word-spacing:0px;text-anchor:start;fill:#000000;fill-opacity:1;stroke:none;stroke-width:0.264583"
       x="-112.09539"
       y="22.292803"
       id="text1231"><tspan
         sodipodi:role="line"
         x="-112.09539"
         y="22.292803"
         id="tspan1229"
         style="stroke-width:0.264583"><tspan
           dx="0"
           dy="0"
           style="font-style:normal;font-variant:normal;font-weight:400;font-size:3.86953px;font-family:Calibri;fill:#000000;stroke-width:0.264583"
           id="tspan1227">haut </tspan></tspan></text>
    <text
       xml:space="preserve"
       style="font-style:normal;font-variant:normal;font-weight:400;font-size:3.86953px;line-height:125%;font-family:Calibri;text-align:start;letter-spacing:0px;word-spacing:0px;text-anchor:start;fill:#000000;fill-opacity:1;stroke:none;stroke-width:0.264583"
       x="-112.09539"
       y="30.965401"
       id="text1237"><tspan
         sodipodi:role="line"
         x="-112.09539"
         y="30.965401"
         id="tspan1235"
         style="stroke-width:0.264583"><tspan
           dx="0"
           dy="0"
           style="font-style:normal;font-variant:normal;font-weight:400;font-size:3.86953px;font-family:Calibri;fill:#000000;stroke-width:0.264583"
           id="tspan1233">Flexion et extension bras vers </tspan></tspan></text>
    <text
       xml:space="preserve"
       style="font-style:normal;font-variant:normal;font-weight:400;font-size:3.86953px;line-height:125%;font-family:Calibri;text-align:start;letter-spacing:0px;word-spacing:0px;text-anchor:start;fill:#000000;fill-opacity:1;stroke:none;stroke-width:0.264583"
       x="-112.09539"
       y="34.922897"
       id="text1243"><tspan
         sodipodi:role="line"
         x="-112.09539"
         y="34.922897"
         id="tspan1241"
         style="stroke-width:0.264583"><tspan
           dx="0"
           dy="0"
           style="font-style:normal;font-variant:normal;font-weight:400;font-size:3.86953px;font-family:Calibri;fill:#000000;stroke-width:0.264583"
           id="tspan1239">l'avant </tspan></tspan></text>
    <text
       xml:space="preserve"
       style="font-style:normal;font-variant:normal;font-weight:400;font-size:3.86953px;line-height:125%;font-family:Calibri;text-align:start;letter-spacing:0px;word-spacing:0px;text-anchor:start;fill:#000000;fill-opacity:1;stroke:none;stroke-width:0.264583"
       x="-112.09539"
       y="63.851494"
       id="text1273"><tspan
         sodipodi:role="line"
         x="-112.09539"
         y="63.851494"
         id="tspan1271"
         style="stroke-width:0.264583"><tspan
           dx="0"
           dy="0"
           style="font-style:normal;font-variant:normal;font-weight:400;font-size:3.86953px;font-family:Calibri;fill:#000000;stroke-width:0.264583"
           id="tspan1269">Extension 1 bras en haut et 1 bras </tspan></tspan></text>
    <text
       xml:space="preserve"
       style="font-style:normal;font-variant:normal;font-weight:400;font-size:3.86953px;line-height:125%;font-family:Calibri;text-align:start;letter-spacing:0px;word-spacing:0px;text-anchor:start;fill:#000000;fill-opacity:1;stroke:none;stroke-width:0.264583"
       x="-112.09539"
       y="67.80899"
       id="text1279"><tspan
         sodipodi:role="line"
         x="-112.09539"
         y="67.80899"
         id="tspan1277"
         style="stroke-width:0.264583"><tspan
           dx="0"
           dy="0"
           style="font-style:normal;font-variant:normal;font-weight:400;font-size:3.86953px;font-family:Calibri;fill:#000000;stroke-width:0.264583"
           id="tspan1275">en bas (diagonale)</tspan></tspan></text>
    <text
       xml:space="preserve"
       style="font-style:normal;font-variant:normal;font-weight:400;font-size:3.86953px;line-height:125%;font-family:Calibri;text-align:start;letter-spacing:0px;word-spacing:0px;text-anchor:start;fill:#000000;fill-opacity:1;stroke:none;stroke-width:0.264583"
       x="-112.09539"
       y="83.319977"
       id="text1285"><tspan
         sodipodi:role="line"
         x="-112.09539"
         y="83.319977"
         id="tspan1283"
         style="stroke-width:0.264583"><tspan
           dx="0"
           dy="0"
           style="font-style:normal;font-variant:normal;font-weight:400;font-size:3.86953px;font-family:Calibri;fill:#000000;stroke-width:0.264583"
           id="tspan1281">Alternance flexion extension bras </tspan></tspan></text>
    <text
       xml:space="preserve"
       style="font-style:normal;font-variant:normal;font-weight:400;font-size:3.86953px;line-height:125%;font-family:Calibri;text-align:start;letter-spacing:0px;word-spacing:0px;text-anchor:start;fill:#000000;fill-opacity:1;stroke:none;stroke-width:0.264583"
       x="-112.09539"
       y="87.277473"
       id="text1291"><tspan
         sodipodi:role="line"
         x="-112.09539"
         y="87.277473"
         id="tspan1289"
         style="stroke-width:0.264583"><tspan
           dx="0"
           dy="0"
           style="font-style:normal;font-variant:normal;font-weight:400;font-size:3.86953px;font-family:Calibri;fill:#000000;stroke-width:0.264583"
           id="tspan1287">devant (attraper object)</tspan></tspan></text>
    <text
       xml:space="preserve"
       style="font-style:normal;font-variant:normal;font-weight:400;font-size:3.86953px;line-height:125%;font-family:Calibri;text-align:start;letter-spacing:0px;word-spacing:0px;text-anchor:start;fill:#000000;fill-opacity:1;stroke:none;stroke-width:0.264583"
       x="-112.09539"
       y="93.84671"
       id="text1297"><tspan
         sodipodi:role="line"
         x="-112.09539"
         y="93.84671"
         id="tspan1295"
         style="stroke-width:0.264583"><tspan
           dx="0"
           dy="0"
           style="font-style:normal;font-variant:normal;font-weight:400;font-size:3.86953px;font-family:Calibri;fill:#000000;stroke-width:0.264583"
           id="tspan1293">Petits battements bras tendu </tspan></tspan></text>
    <text
       xml:space="preserve"
       style="font-style:normal;font-variant:normal;font-weight:400;font-size:3.86953px;line-height:125%;font-family:Calibri;text-align:start;letter-spacing:0px;word-spacing:0px;text-anchor:start;fill:#000000;fill-opacity:1;stroke:none;stroke-width:0.264583"
       x="-112.09539"
       y="97.804214"
       id="text1303"><tspan
         sodipodi:role="line"
         x="-112.09539"
         y="97.804214"
         id="tspan1301"
         style="stroke-width:0.264583"><tspan
           dx="0"
           dy="0"
           style="font-style:normal;font-variant:normal;font-weight:400;font-size:3.86953px;font-family:Calibri;fill:#000000;stroke-width:0.264583"
           id="tspan1299">devant </tspan></tspan></text>
    <text
       xml:space="preserve"
       style="font-style:normal;font-variant:normal;font-weight:400;font-size:3.86953px;line-height:125%;font-family:Calibri;text-align:start;letter-spacing:0px;word-spacing:0px;text-anchor:start;fill:#000000;fill-opacity:1;stroke:none;stroke-width:0.264583"
       x="-112.09539"
       y="103.84512"
       id="text1309"><tspan
         sodipodi:role="line"
         x="-112.09539"
         y="103.84512"
         id="tspan1307"
         style="stroke-width:0.264583"><tspan
           dx="0"
           dy="0"
           style="font-style:normal;font-variant:normal;font-weight:400;font-size:3.86953px;font-family:Calibri;fill:#000000;stroke-width:0.264583"
           id="tspan1305">Ronds de bras vers l'avant </tspan></tspan></text>
    <text
       xml:space="preserve"
       style="font-style:normal;font-variant:normal;font-weight:400;font-size:3.86953px;line-height:125%;font-family:Calibri;text-align:start;letter-spacing:0px;word-spacing:0px;text-anchor:start;fill:#000000;fill-opacity:1;stroke:none;stroke-width:0.264583"
       x="-112.09539"
       y="107.80262"
       id="text1315"><tspan
         sodipodi:role="line"
         x="-112.09539"
         y="107.80262"
         id="tspan1313"
         style="stroke-width:0.264583"><tspan
           dx="0"
           dy="0"
           style="font-style:normal;font-variant:normal;font-weight:400;font-size:3.86953px;font-family:Calibri;fill:#000000;stroke-width:0.264583"
           id="tspan1311">simultanés côté </tspan></tspan></text>
    <text
       xml:space="preserve"
       style="font-style:normal;font-variant:normal;font-weight:400;font-size:3.86953px;line-height:125%;font-family:Calibri;text-align:start;letter-spacing:0px;word-spacing:0px;text-anchor:start;fill:#000000;fill-opacity:1;stroke:none;stroke-width:0.264583"
       x="-112.09539"
       y="113.84354"
       id="text1321"><tspan
         sodipodi:role="line"
         x="-112.09539"
         y="113.84354"
         id="tspan1319"
         style="stroke-width:0.264583"><tspan
           dx="0"
           dy="0"
           style="font-style:normal;font-variant:normal;font-weight:400;font-size:3.86953px;font-family:Calibri;fill:#000000;stroke-width:0.264583"
           id="tspan1317">Ronds de bras vers l'arrière </tspan></tspan></text>
    <text
       xml:space="preserve"
       style="font-style:normal;font-variant:normal;font-weight:400;font-size:3.86953px;line-height:125%;font-family:Calibri;text-align:start;letter-spacing:0px;word-spacing:0px;text-anchor:start;fill:#000000;fill-opacity:1;stroke:none;stroke-width:0.264583"
       x="-112.09539"
       y="117.80103"
       id="text1327"><tspan
         sodipodi:role="line"
         x="-112.09539"
         y="117.80103"
         id="tspan1325"
         style="stroke-width:0.264583"><tspan
           dx="0"
           dy="0"
           style="font-style:normal;font-variant:normal;font-weight:400;font-size:3.86953px;font-family:Calibri;fill:#000000;stroke-width:0.264583"
           id="tspan1323">simultanés côté </tspan></tspan></text>
    <g
       id="g1455"
       transform="translate(16.839443,22.421766)">
      <path
         id="rect1441"
         style="fill:#ffffff;fill-opacity:1;stroke:#000000;stroke-width:0.5;stroke-miterlimit:4;stroke-dasharray:none;stroke-dashoffset:10;stroke-opacity:1"
         inkscape:transform-center-x="-1.5191182"
         inkscape:transform-center-y="-3.6009936"
         d="m -44.735989,58.03388 c -0.240976,-0.0011 -0.696266,0.166276 -0.696266,0.166276 0,0 -0.749891,0.305539 -0.897864,0.765317 0,0 -0.752644,2.217045 -1.147912,3.345355 -0.153765,0.43893 -0.20273,0.779961 -0.227259,1.116891 0,0.621688 0.570718,1.432412 1.245213,1.49005 0,0 2.642121,0.02259 2.726041,0.07586 0.128454,0.08145 -1.121028,2.641541 -1.121028,2.641541 -0.263215,0.595638 -0.01728,1.277461 0.551372,1.52875 l 0.09679,0.04295 c 0.568646,0.251275 1.238421,-0.02594 1.501636,-0.621606 l 1.804442,-4.08338 c 0.09972,-0.22567 0.250789,-0.430534 0.250901,-0.692715 l 1.82e-4,-0.105988 c 1.85e-4,-0.332453 -0.150528,-0.629373 -0.38955,-0.834613 -2.76e-4,-1.82e-4 -4.6e-4,-4.6e-4 -7.36e-4,-7.26e-4 -3.68e-4,-3.76e-4 -8.27e-4,-7.38e-4 -0.0012,-0.001 -0.01902,-0.01631 -0.03843,-0.03208 -0.05855,-0.04713 -0.02085,-0.01617 -0.04245,-0.03138 -0.06465,-0.04615 -0.0015,-10e-4 -0.0032,-0.0014 -0.005,-0.0027 -0.04896,-0.03208 -0.100128,-0.06165 -0.155354,-0.08604 l -0.09679,-0.04267 c -0.225869,-0.09985 -0.231706,-0.100128 -0.632771,-0.118679 0,0 -1.755408,0.0083 -1.97063,-0.01729 -0.06041,-0.007 1.041598,-2.437416 1.041598,-2.437416 h 5.608369 c 0.517022,0 0.933203,-0.416184 0.933203,-0.93321 v -0.15194 c 0,-0.517011 -0.416181,-0.933376 -0.933203,-0.933376 h -7.05827 c -0.03319,0 -0.06578,0.0014 -0.09807,0.0056 -0.06807,-0.01394 -0.13653,-0.02092 -0.204744,-0.0212 z"
         sodipodi:nodetypes="sccsccsccccsccsccccccccscssssscss" />
      <circle
         style="fill:#ffffff;fill-opacity:1;stroke:#020004;stroke-width:0.452828;stroke-miterlimit:4;stroke-dasharray:none;stroke-dashoffset:10;stroke-opacity:1"
         id="path1437"
         cx="-43.651592"
         cy="56.366119"
         r="1.7174361" />
    </g>
    <g
       id="g1573"
       transform="translate(-33.413225,-15.433619)">
      <circle
         style="fill:#ffffff;fill-opacity:1;stroke:#020004;stroke-width:0.452828;stroke-miterlimit:4;stroke-dasharray:none;stroke-dashoffset:10;stroke-opacity:1"
         id="path1437-2"
         cx="8.8655891"
         cy="110.09303"
         r="1.7174361" />
      <path
         id="rect1553"
         style="fill:#929292;fill-opacity:1;stroke:#020004;stroke-width:0.447432;stroke-miterlimit:4;stroke-dasharray:none;stroke-opacity:1"
         inkscape:transform-center-x="0.032354459"
         inkscape:transform-center-y="3.1214904"
         d="m 8.3610368,120.95069 c -0.783418,-0.006 -1.419688,0.54944 -1.4267841,1.24592 0,0 -0.2162222,4.53997 -0.2556616,4.73616 -0.056268,0.27991 -5.69694789,0.0284 -5.69694789,0.0284 -0.17854083,-0.10317 -0.41703624,-0.16803 -0.68316209,-0.1695 -0.55957523,-0.003 -1.01398916,0.26963 -1.01905857,0.61185 l -0.0428916,2.87837 c -0.005069,0.34222 0.44139643,0.62064 1.00097166,0.62374 0.55957257,0.003 1.01398909,-0.27016 1.01905859,-0.61237 l 0.011885,-0.79478 6.823874,0.0517 c 0.7671832,0.006 1.4026779,-0.45029 1.5254869,-1.05524 0.05289,-0.13034 0.083772,-0.27023 0.085267,-0.41703 l 0.059428,-5.85855 c 0.0071,-0.69649 -0.6180455,-1.26236 -1.4014662,-1.26866 z"
         sodipodi:nodetypes="ccsccccccccccccc" />
      <path
         id="rect1547"
         style="fill:#ffffff;fill-opacity:1;stroke:#020004;stroke-width:2.35355;stroke-miterlimit:4;stroke-dasharray:none;stroke-opacity:1"
         d="m 174.70312,374.40234 c -0.49272,-0.003 -0.97486,0.0689 -1.38476,0.26954 -0.24865,0.0804 -0.4331,0.16685 -0.65234,0.25 -2.90611,0.85639 -5.01758,3.5318 -5.01758,6.72265 v 29.99609 c -0.15538,6.27179 3.01534,9.62229 7.01367,9.70313 2.00293,0 3.22779,-2.188 5.07617,-2.17383 0,0 13.10489,-0.44893 14.7168,0.80078 1.2454,0.96556 -0.13281,22.61719 -0.13281,22.61719 -0.0264,3.20622 2.29962,5.81084 5.21679,5.83984 2.91717,0.029 5.53803,-2.59456 5.56446,-5.80078 l -0.0293,-26.82812 c 0.12927,-0.39129 0.0147,-1.42606 0.0195,-1.85156 0.0294,-2.6538 -2.34151,-4.18469 -5.55469,-4.20899 0,0 -16.14539,-0.23012 -17.55664,-1.13672 -0.56967,-0.36596 -0.51663,-11.49707 -0.41797,-19.35547 l 12.22852,12.69532 c 1.35556,1.40749 3.57886,1.44924 4.98633,0.0937 l 0.41406,-0.39649 c 1.4086,-1.35624 1.45127,-3.58277 0.0957,-4.99023 L 180.7832,377.43555 c -0.087,-0.0907 -0.17502,-0.17712 -0.27343,-0.25196 -0.14136,-0.22148 -0.30053,-0.4268 -0.47852,-0.61328 -0.6306,-0.65761 -2.27734,-1.46094 -2.27734,-1.46093 0,0 -1.57261,-0.69673 -3.05079,-0.70704 z"
         transform="matrix(0.26458333,0,0,0.26458333,-37.245478,12.767443)" />
    </g>
    <g
       id="g1745">
      <path
         style="fill:#000000;stroke:#000000;stroke-width:0.128006px;stroke-linecap:butt;stroke-linejoin:miter;stroke-opacity:1"
         d="m -21.666067,34.635005 c -0.0083,0.0182 -0.117397,0.267408 -0.117397,0.267408 l -0.437615,-0.814784 0.91258,-0.208437 -0.140644,0.318356 c 0,0 0.436864,0.150684 0.627761,0.677229 0.190894,0.526548 0.05284,0.916416 0.05284,0.916416 0,0 -0.04269,-0.784314 -0.89749,-1.156174 z"
         id="path994-4"
         sodipodi:nodetypes="sccccscss"
         transform="translate(22.094153,23.403958)" />
      <path
         style="fill:#000000;stroke:#000000;stroke-width:0.128006px;stroke-linecap:butt;stroke-linejoin:miter;stroke-opacity:1"
         d="m -29.312646,34.635005 c 0.0083,0.0182 0.117397,0.267408 0.117397,0.267408 l 0.437615,-0.814784 -0.91258,-0.208437 0.140644,0.318356 c 0,0 -0.436864,0.150684 -0.627761,0.677229 -0.190894,0.526548 -0.05284,0.916416 -0.05284,0.916416 0,0 0.04269,-0.784314 0.89749,-1.156174 z"
         id="path1714"
         sodipodi:nodetypes="sccccscss"
         transform="translate(22.094153,23.403958)" />
      <rect
         style="fill:#000000;fill-opacity:0.991561;stroke:none;stroke-width:0.170154;stroke-miterlimit:4;stroke-dasharray:none;stroke-opacity:1"
         id="rect1722"
         width="0.17331252"
         height="0.87701386"
         x="-25.607323"
         y="28.010075"
         rx="0"
         ry="0"
         transform="translate(22.094153,23.403958)" />
      <rect
         style="fill:#000000;fill-opacity:0.991561;stroke:none;stroke-width:0.170154;stroke-miterlimit:4;stroke-dasharray:none;stroke-opacity:1"
         id="rect1724"
         width="0.17331252"
         height="0.87701386"
         x="-13.642142"
         y="34.829948"
         rx="0"
         ry="0"
         transform="rotate(20.251941,-54.475423,73.557503)" />
      <rect
         style="fill:#000000;fill-opacity:0.991561;stroke:none;stroke-width:0.170154;stroke-miterlimit:4;stroke-dasharray:none;stroke-opacity:1"
         id="rect1726"
         width="0.17331252"
         height="0.87701386"
         x="34.610909"
         y="17.105579"
         rx="0"
         ry="0"
         transform="matrix(-0.93817961,0.34614885,0.34614885,0.93817961,22.094153,23.403958)" />
      <g
         id="g1619"
         transform="translate(12.91182,-2.8339278)">
        <g
           id="g1617"
           transform="translate(2.6293047,17.584833)">
          <rect
             style="fill:#929292;fill-opacity:0.5;stroke:#020004;stroke-width:0.594569;stroke-miterlimit:4;stroke-dasharray:none;stroke-opacity:0.5"
             id="rect1666"
             width="1.5486742"
             height="7.8694167"
             x="-22.259579"
             y="-44.041782"
             rx="0.68422675"
             ry="1.1468124"
             inkscape:transform-center-x="0.19355503"
             inkscape:transform-center-y="-2.6907181"
             transform="matrix(0.99551268,-0.09462824,-0.08311936,-0.9965396,0,0)" />
          <path
             id="path1627"
             style="fill:#929292;fill-opacity:1;stroke:#000000;stroke-width:1.78476;stroke-miterlimit:4;stroke-dasharray:none;stroke-opacity:1"
             d="m 132.78125,174.90234 c -2.28044,-0.009 -4.59943,0.0731 -6.89063,0.0977 -3.65797,0.0391 -5.30664,1.25151 -5.30664,5.34766 0,0 -0.0113,19.32912 0,20.23828 0.014,0.11373 -0.003,0.41102 0.0156,0.51953 v 26.875 c -0.009,0.8105 0.007,1.7678 0.0117,2.57422 0.009,2.1108 2.03956,3.3457 4.15039,3.3457 2.11083,0 3.75976,-1.49272 3.75976,-3.60351 -0.0532,-8.02545 -0.10413,-16.62633 -0.16796,-24.80665 2.19007,-0.21109 5.20072,-1.59459 5.16406,-4.94921 v -17 c 1.71149,1.76304 2.77299,2.93524 3.66211,3.9375 2.64826,3.18228 5.9487,6.326 8.23844,8.95601 1.09048,1.25244 2.92367,1.42887 4.10938,0.39648 1.1857,-1.03238 1.26235,-2.87256 0.17187,-4.125 -3.21982,-2.92228 -4.83004,-6.1553 -8.27946,-9.9814 l -6.49219,-6.85938 c -0.58533,-0.61853 -1.36093,-0.94134 -2.14648,-0.96289 z"
             transform="matrix(0.26458333,0,0,0.26458333,-52.786602,-1.9834622)"
             sodipodi:nodetypes="cccccccsccccccscccc" />
          <rect
             style="fill:#e8e8e8;fill-opacity:0.5;stroke:#020004;stroke-width:0.594569;stroke-miterlimit:4;stroke-dasharray:none;stroke-opacity:0.5"
             id="rect1633"
             width="1.5486742"
             height="7.8694167"
             x="13.997676"
             y="-48.123745"
             rx="0.68422675"
             ry="1.1468124"
             inkscape:transform-center-x="-0.28939187"
             inkscape:transform-center-y="-2.6821027"
             transform="matrix(-0.99150464,-0.1300713,0.11860636,-0.99294135,0,0)" />
          <path
             id="path1639"
             style="fill:#e8e8e8;fill-opacity:1;stroke:#000000;stroke-width:1.78476;stroke-miterlimit:4;stroke-dasharray:none;stroke-opacity:1"
             d="m 123.25586,175.02539 c -0.78531,0.0291 -1.5573,0.35833 -2.13672,0.98242 -2.18849,2.07921 -4.04034,4.39009 -6.35742,6.68164 l -9.60352,10.28125 c -1.09425,1.1715 -1.08369,2.94842 0.0254,3.98438 l 0.52735,0.49219 c 1.10908,1.03595 2.88426,0.92735 3.97851,-0.24415 l 9.60352,-10.28124 c 0.53072,-0.64241 1.09209,-1.32106 1.43164,-1.74805 l 0.0312,1.72656 0.12109,6.50586 0.13477,7.26367 c -0.005,3.35483 4.77091,4.70822 6.96289,4.89844 0.014,8.18056 0.0451,16.78301 0.0684,24.80859 0.02,2.11072 1.68419,3.58652 3.79492,3.56641 2.11074,-0.02 4.12855,-1.27398 4.11719,-3.38477 -0.003,-0.80642 0.003,-1.76386 -0.0137,-2.57421 l -0.25586,-26.87305 c 0.0174,-0.1087 -0.001,-0.40567 0.0117,-0.51953 0.003,-0.90923 -0.19336,-20.23828 -0.19336,-20.23828 -0.0391,-4.09597 -1.69923,-5.29263 -5.35743,-5.29688 -2.29132,-0.003 -4.61037,-0.0616 -6.89062,-0.0312 z"
             transform="matrix(0.26458333,0,0,0.26458333,-52.786602,-1.9834622)"
             sodipodi:nodetypes="ccccccccccccccccccccccc" />
          <circle
             style="fill:#ffffff;fill-opacity:1;stroke:#000000;stroke-width:0.443024;stroke-miterlimit:4;stroke-dasharray:none;stroke-opacity:1"
             id="circle1611"
             cx="-18.967518"
             cy="42.588772"
             r="1.7275661" />
        </g>
      </g>
    </g>
    <g
       id="g1771"
       transform="translate(17.204119)">
      <g
         id="g1769"
         transform="translate(12.91182,-2.8339278)">
        <g
           id="g1767"
           transform="translate(2.6293047,17.584833)">
          <path
             id="path1786"
             style="fill:#929292;fill-opacity:1;stroke:#000000;stroke-width:0.472218;stroke-miterlimit:4;stroke-dasharray:none;stroke-opacity:1"
             inkscape:transform-center-x="2.919373"
             inkscape:transform-center-y="0.012720866"
             d="m -11.7144,44.313969 c 0.424132,-0.0028 0.767815,0.317797 0.770495,0.719336 l 0.0011,0.190688 c 0.0027,0.401532 -0.336545,0.727355 -0.760677,0.730186 l -2.174544,0.01447 c -0.05982,0.0034 -0.111917,0.0068 -0.17725,0.01035 l -0.685229,-0.0047 -0.685231,0.0047 c -0.06522,-0.0035 -0.117009,-0.0069 -0.176734,-0.01035 l -0.906094,0.02262 c -0.350645,0.0088 -0.387313,0.630693 -0.367213,1.01917 l -0.0083,0.456819 -0.03204,1.721342 -0.03566,1.921846 c 0.0013,0.887632 -1.262303,1.245716 -1.842265,1.296045 -0.0037,2.16444 -0.01193,4.440505 -0.0181,6.56394 -0.0053,0.558461 -0.445609,0.948933 -1.004073,0.943612 -0.558466,-0.0053 -1.092345,-0.337073 -1.08934,-0.895553 7.94e-4,-0.213366 -7.93e-4,-0.466694 0.0036,-0.681093 l 0.0677,-7.110161 c -0.0046,-0.02876 2.6e-4,-0.107334 -0.0031,-0.137459 -7.94e-4,-0.240568 0.05116,-5.354712 0.05116,-5.354712 0.01035,-1.083725 0.449585,-1.400342 1.417484,-1.401466 0.487542,-5.29e-4 0.978699,-0.008 1.466577,-0.0078 0.04419,-0.0071 0.08893,-0.0122 0.135393,-0.01188 l 3.026172,0.02016 z"
             sodipodi:nodetypes="cccccccccsccccccccccccccccc" />
          <path
             id="path1763"
             style="fill:#ffffff;fill-opacity:1;stroke:#000000;stroke-width:1.78476;stroke-miterlimit:4;stroke-dasharray:none;stroke-opacity:1"
             inkscape:transform-center-x="-2.9193879"
             inkscape:transform-center-y="0.012746637"
             d="m 166.24023,174.98242 c -1.60302,-0.0106 -2.90198,1.20112 -2.91211,2.71875 l -0.004,0.72071 c -0.0102,1.5176 1.27198,2.74906 2.875,2.75976 l 8.21875,0.0547 c 0.22609,0.013 0.42299,0.0256 0.66992,0.0391 l 2.58984,-0.0176 2.58985,0.0176 c 0.2465,-0.0134 0.44224,-0.0261 0.66797,-0.0391 l 3.42461,0.0855 c 1.32527,0.0331 1.46386,2.38372 1.38789,3.85198 l 0.0312,1.72656 0.12109,6.50586 0.13477,7.26367 c -0.005,3.35483 4.77091,4.70822 6.96289,4.89844 0.014,8.18056 0.0451,16.78301 0.0684,24.80859 0.02,2.11072 1.68419,3.58652 3.79492,3.56641 2.11074,-0.02 4.12855,-1.27398 4.11719,-3.38477 -0.003,-0.80642 0.003,-1.76388 -0.0137,-2.57421 l -0.25586,-26.87305 c 0.0174,-0.1087 -9.8e-4,-0.40567 0.0117,-0.51953 0.003,-0.90923 -0.19336,-20.23828 -0.19336,-20.23828 -0.0391,-4.09597 -1.69922,-5.29263 -5.35742,-5.29688 -1.84268,-0.002 -3.69902,-0.0302 -5.54297,-0.0293 -0.16701,-0.027 -0.33612,-0.0461 -0.51172,-0.0449 l -11.4375,0.0762 z"
             transform="matrix(0.26458333,0,0,0.26458333,-69.990721,-1.9834622)"
             sodipodi:nodetypes="cccccccccsccccccccccccccccc" />
          <circle
             style="fill:#ffffff;fill-opacity:1;stroke:#000000;stroke-width:0.443024;stroke-miterlimit:4;stroke-dasharray:none;stroke-opacity:1"
             id="circle1765"
             cx="-18.967518"
             cy="42.588772"
             r="1.7275661" />
        </g>
      </g>
      <rect
         style="fill:#000000;fill-opacity:0.991561;stroke:none;stroke-width:0.170154;stroke-miterlimit:4;stroke-dasharray:none;stroke-opacity:1"
         id="rect1751"
         width="0.17331252"
         height="0.87701386"
         x="-3.3701091"
         y="-61.941071"
         rx="0"
         ry="0"
         transform="scale(1,-1)" />
      <rect
         style="fill:#000000;fill-opacity:0.991561;stroke:none;stroke-width:0.170154;stroke-miterlimit:4;stroke-dasharray:none;stroke-opacity:1"
         id="rect1753"
         width="0.17331252"
         height="0.87701386"
         x="-23.916128"
         y="-57.257767"
         rx="0"
         ry="0"
         transform="matrix(0.93817961,-0.34614884,-0.34614884,-0.93817961,0,0)" />
      <rect
         style="fill:#000000;fill-opacity:0.991561;stroke:none;stroke-width:0.170154;stroke-miterlimit:4;stroke-dasharray:none;stroke-opacity:1"
         id="rect1755"
         width="0.17331252"
         height="0.87701386"
         x="-17.388077"
         y="-59.587364"
         rx="0"
         ry="0"
         transform="rotate(-159.74806)" />
    </g>
    <ellipse
       style="fill:#929292;fill-opacity:0.5;stroke:#000000;stroke-width:0.407694;stroke-miterlimit:4;stroke-dasharray:none;stroke-opacity:0.5"
       id="path1790"
       cx="14.801416"
       cy="60.081757"
       rx="0.76435256"
       ry="0.82642406" />
    <ellipse
       style="fill:#ffffff;fill-opacity:0.5;stroke:#000000;stroke-width:0.407694;stroke-miterlimit:4;stroke-dasharray:none;stroke-opacity:0.5"
       id="ellipse1814"
       cx="12.885218"
       cy="60.081757"
       rx="0.76435256"
       ry="0.82642406" />
    <path
       id="path1816"
       style="fill:#000000;stroke:#000000;stroke-width:0.129323px;stroke-linecap:butt;stroke-linejoin:miter;stroke-opacity:1"
       d="m -18.45618,75.232721 0.728462,0.603569 0.018,-0.350906 c 0,0 0.356411,0.04759 0.722181,-0.20327 0.421247,-0.136725 0.600906,-0.448219 0.600906,-0.448219 l 0.288746,0.200452 -0.03331,-0.945433 -0.891656,0.279288 c 0,0 0.226732,0.155735 0.243206,0.167475 -0.118347,0.173083 -0.249309,0.30052 -0.381421,0.396881 -0.156574,0.04548 -0.336851,0.07121 -0.545394,0.05932 7.59e-4,-0.02021 0.01583,-0.294866 0.01583,-0.294866 z" />
    <path
       id="path1816-1"
       style="fill:#000000;stroke:#000000;stroke-width:0.0595881px;stroke-linecap:butt;stroke-linejoin:miter;stroke-opacity:1"
       d="m 9.6647196,59.614178 c -0.1541209,0.128574 -0.353765,0.290028 -0.353765,0.290028 l 0.3354953,0.278112 0.00834,-0.161676 c 0.1453555,-0.0029 0.2005913,0.0083 0.3671641,0.01119 l -0.0019,0.161915 0.352163,-0.256919 -0.336924,-0.268111 c 0,0 -7.31e-4,0.126642 -9.77e-4,0.135959 -0.1817281,3.66e-4 -0.234761,-0.0036 -0.3778794,-0.01142 3.657e-4,-0.0093 0.00847,-0.06975 0.00827,-0.179069 z"
       sodipodi:nodetypes="ccccccccccc" />
    <path
       id="path1844"
       style="fill:#000000;stroke:#000000;stroke-width:0.0595881px;stroke-linecap:butt;stroke-linejoin:miter;stroke-opacity:1"
       d="m 17.989937,59.614178 c -0.154121,0.128574 -0.353765,0.290028 -0.353765,0.290028 l 0.335495,0.278112 0.0083,-0.161676 c 0.145356,-0.0029 0.200591,0.0083 0.367164,0.01119 l -0.0019,0.161915 0.352163,-0.256919 -0.336924,-0.268111 c 0,0 -7.31e-4,0.126642 -9.77e-4,0.135959 -0.181728,3.66e-4 -0.234761,-0.0036 -0.377879,-0.01142 3.66e-4,-0.0093 0.0085,-0.06975 0.0083,-0.179069 z"
       sodipodi:nodetypes="ccccccccccc" />
  </g>
</svg>
